# xmcd
#
# Track frame offsets:
#  150
#  21372
#  32980
#  47453
#  68833
#  88448
#  98552
#  112294
#  139247
#  160632
#  187392
#  212842
#  225680
#  241748
#  269150
#
# Disc length: 3810 seconds
#
# Revision: 0
# Processed by: cddbd v1.5.1PL0 Copyright (c) Steve Scherf et al.
# Submitted via: Collectorz.com Music Collector 6.9
#
DISCID=e10ee00f
DTITLE=lyle lovett and his large band - Greek Theatre, La, Ca - Disc 2
DYEAR=2001
DGENRE=
TTITLE0=If I Had A Boat
TTITLE1=God Will
TTITLE2=Give Back My Heart
TTITLE3=Nobody Knows Me
TTITLE4=San Antonio Girl
TTITLE5=Penguins
TTITLE6=What Do You Do/Glory Of Love
TTITLE7=Wild Women Don't Get The Blues
TTITLE8=Isn't That Soul
TTITLE9=You Can't Resist It
TTITLE10=I'm Gonna Wait
TTITLE11=Stand By Your Man
TTITLE12=Hot To Go
TTITLE13=Pass Me Not
TTITLE14=I'm A Soldier In The Army Of The Lord
EXTD=
EXTT0=
EXTT1=
EXTT2=
EXTT3=
EXTT4=
EXTT5=
EXTT6=
EXTT7=
EXTT8=
EXTT9=
EXTT10=
EXTT11=
EXTT12=
EXTT13=
EXTT14=
PLAYORDER=
